<?xml version="1.0" encoding="UTF-8" standalone="no" ?>
<!DOCTYPE svg PUBLIC "-//W3C//DTD SVG 1.1//EN" "http://www.w3.org/Graphics/SVG/1.1/DTD/svg11.dtd">
<svg xmlns="http://www.w3.org/2000/svg" xmlns:xlink="http://www.w3.org/1999/xlink" version="1.1" width="1280" height="1024" viewBox="0 0 1280 1024" xml:space="preserve">
<desc>Created with Fabric.js 4.4.0</desc>
<defs>
</defs>
<g transform="matrix(1 0 0 1 640 512)" id="background-logo"  >
<rect style="stroke: none; stroke-width: 0; stroke-dasharray: none; stroke-linecap: butt; stroke-dashoffset: 0; stroke-linejoin: miter; stroke-miterlimit: 4; fill: rgb(54,54,64); fill-rule: nonzero; opacity: 1;"  paint-order="stroke"  x="-640" y="-512" rx="0" ry="0" width="1280" height="1024" />
</g>
<g transform="matrix(1.3828069001339678 0 0 1.3828069001339678 639.9999999999999 446.36312559117647)" id="logo-logo"  >
<g style=""  paint-order="stroke"   >
		<g transform="matrix(0.6623367883049517 0 0 -0.6623367883049517 0 0)"  >
<linearGradient id="SVGID_24_5_6_6_224159" gradientUnits="userSpaceOnUse" gradientTransform="matrix(1 0 0 1 -13.564999999999998 -112.95)"  x1="0" y1="0" x2="0" y2="435">
<stop offset="0%" style="stop-color:rgb(66,230,149);stop-opacity: 1"/>
<stop offset="100%" style="stop-color:rgb(59,178,184);stop-opacity: 1"/>
</linearGradient>
<path style="stroke: none; stroke-width: 1; stroke-dasharray: none; stroke-linecap: butt; stroke-dashoffset: 0; stroke-linejoin: miter; stroke-miterlimit: 4; fill: url(#SVGID_24_5_6_6_224159); fill-rule: nonzero; opacity: 1;"  paint-order="stroke"  transform=" translate(-128.59699999999998, -104.63949999999998)" d="M 0 0 C 0 5.101 2.369 9.603 6.011 12.622 C 8.861 14.985 12.472000000000001 16.463 16.464 16.463 C 20.438 16.463 24.034999999999997 14.997000000000002 26.88 12.651000000000002 C 30.543 9.633 32.927 5.117 32.927 0 C 32.927 -5.118 30.543 -9.633 26.88 -12.653 C 24.035 -14.998000000000001 20.438 -16.464 16.464 -16.464 C 12.471999999999998 -16.464 8.860999999999999 -14.985 6.010999999999999 -12.622999999999998 C 2.369 -9.603 0 -5.102 0 0 M 78.286 73.029 C 81.07000000000001 75.18599999999999 84.521 76.521 88.316 76.521 C 92.488 76.521 96.253 74.92 99.155 72.361 C 102.577 69.345 104.779 64.979 104.779 60.05800000000001 C 104.779 55.138000000000005 102.577 50.77100000000001 99.155 47.75500000000001 C 96.253 45.19600000000001 92.488 43.59400000000001 88.316 43.59400000000001 C 84.521 43.59400000000001 81.07000000000001 44.93000000000001 78.286 47.08700000000001 C 74.398 50.09800000000001 71.852 54.76000000000001 71.852 60.05800000000001 C 71.852 65.35600000000001 74.39800000000001 70.018 78.286 73.02900000000001 M 157.522 -71.04299999999999 C 160.47899999999998 -68.217 164.465 -66.458 168.878 -66.458 C 172.416 -66.458 175.67499999999998 -67.598 178.35799999999998 -69.497 C 182.57199999999997 -72.479 185.34099999999998 -77.366 185.34099999999998 -82.92099999999999 C 185.34099999999998 -88.476 182.57199999999997 -93.36399999999999 178.35799999999998 -96.34599999999999 C 175.67499999999998 -98.24499999999999 172.41599999999997 -99.38499999999999 168.878 -99.38499999999999 C 164.46499999999997 -99.38499999999999 160.47899999999998 -97.62499999999999 157.522 -94.79899999999999 C 154.388 -91.80099999999999 152.414 -87.601 152.414 -82.92099999999999 C 152.414 -78.24099999999999 154.38799999999998 -74.041 157.522 -71.04299999999999 M 229.781 3.321000000000012 C 232.695 5.936000000000012 236.507 7.5720000000000125 240.73000000000002 7.5720000000000125 C 244.46500000000003 7.5720000000000125 247.87 6.281000000000013 250.633 4.185000000000013 C 254.595 1.1780000000000128 257.193 -3.5339999999999874 257.193 -8.891999999999987 C 257.193 -14.247999999999987 254.59499999999997 -18.960999999999988 250.63299999999998 -21.96799999999999 C 247.86999999999998 -24.062999999999988 244.46499999999997 -25.35399999999999 240.73 -25.35399999999999 C 236.50699999999998 -25.35399999999999 232.695 -23.718999999999987 229.78099999999998 -21.10399999999999 C 226.42099999999996 -18.090999999999987 224.26699999999997 -13.760999999999989 224.26699999999997 -8.891999999999989 C 224.26699999999997 -4.020999999999988 226.42099999999996 0.3080000000000105 229.78099999999998 3.3210000000000104 M -13.565 0 C -13.565 -12.894 -5.398999999999999 -23.798 6.011000000000001 -28.054 C 9.277000000000001 -29.272 12.772000000000002 -30.029 16.464 -30.029 C 20.142 -30.029 23.622999999999998 -29.275 26.88 -28.064 C 38.308 -23.819 46.492999999999995 -12.907 46.492999999999995 0 C 46.492999999999995 12.906 38.30799999999999 23.818 26.879999999999995 28.063 L 26.879999999999995 198.975 C 45.379 183.933 73.127 161.381 78.286 157.173 L 78.286 88.242 C 66.659 84.1 58.287 73.106 58.287 60.058 C 58.287 47.01 66.65899999999999 36.016 78.286 31.873 C 81.437 30.751 84.78 30.028000000000002 88.316 30.028000000000002 C 92.15 30.028000000000002 95.784 30.815 99.155 32.125 C 110.367 36.480000000000004 118.345 47.307 118.345 60.058 C 118.345 72.809 110.367 83.635 99.155 87.99 L 99.155 167.08999999999997 L 99.155 276.2 C 119.07300000000001 258.711 152.514 229.35999999999999 157.522 224.97799999999998 L 157.522 113.682 L 157.522 -55.148 C 146.57399999999998 -59.63 138.849 -70.36 138.849 -82.921 C 138.849 -95.482 146.57399999999998 -106.212 157.522 -110.694 C 161.029 -112.129 164.85399999999998 -112.95 168.878 -112.95 C 172.212 -112.95 175.361 -112.279 178.35799999999998 -111.276 C 190.26799999999997 -107.28999999999999 198.90699999999998 -96.172 198.90699999999998 -82.92099999999999 C 198.90699999999998 -69.67099999999999 190.26799999999997 -58.553 178.35799999999998 -54.56599999999999 L 178.35799999999998 103.765 C 183.551 107.972 211.28199999999998 130.527 229.78099999999998 145.571 L 229.78099999999998 19.008 C 218.626 14.624 210.7 3.819 210.7 -8.892 C 210.7 -21.603 218.62599999999998 -32.407 229.78099999999998 -36.79 C 233.18099999999998 -38.126 236.85599999999997 -38.921 240.73 -38.921 C 244.22 -38.921 247.518 -38.208999999999996 250.63299999999998 -37.115 C 262.32399999999996 -33.008 270.75899999999996 -21.986000000000004 270.75899999999996 -8.892000000000003 C 270.75899999999996 4.203999999999997 262.32399999999996 15.225999999999996 250.63299999999995 19.331999999999997 L 250.63299999999995 189.4 L 178.35799999999995 130.62800000000001 L 178.35799999999995 234.428 L 78.286 322.229 L 78.286 184.041 L 6.011 242.809 L 6.011 28.053 C -5.399 23.797 -13.565 12.893 -13.565 0" stroke-linecap="round" />
</g>
</g>
</g>
<g transform="matrix(1.9211538461538462 0 0 1.9211538461538462 640.0928682767427 687.5587523510399)" id="text-logo-path"  >
<path style="stroke: rgb(208,218,214); stroke-width: 1; stroke-dasharray: none; stroke-linecap: butt; stroke-dashoffset: 0; stroke-linejoin: miter; stroke-miterlimit: 4; fill: rgb(255,255,255); fill-rule: nonzero; opacity: 1;"  paint-order="stroke"  transform=" translate(-63.235, 8.47)" d="M 14.48 0 L 1.28 0 L 1.28 -15.84 L 14.48 -15.84 Q 15.58 -15.84 16.34 -15.07 Q 17.11 -14.3 17.11 -13.2 L 17.11 -13.2 L 17.11 -2.64 Q 17.11 -1.55 16.34 -0.77 Q 15.58 0 14.48 0 L 14.48 0 Z M 3.06 -13.2 L 3.06 -2.64 Q 3.06 -2.29 3.31 -2.04 Q 3.57 -1.78 3.92 -1.78 L 3.92 -1.78 L 14.48 -1.78 Q 14.83 -1.78 15.08 -2.04 Q 15.33 -2.29 15.33 -2.64 L 15.33 -2.64 L 15.33 -13.2 Q 15.33 -13.56 15.08 -13.81 Q 14.82 -14.06 14.48 -14.06 L 14.48 -14.06 L 3.92 -14.06 Q 3.57 -14.06 3.31 -13.81 Q 3.06 -13.56 3.06 -13.2 L 3.06 -13.2 Z M 19.49 -2.66 L 19.49 -2.66 L 19.49 -7.28 L 30.67 -7.28 L 30.67 -10.1 Q 30.67 -10.45 30.42 -10.7 Q 30.16 -10.96 29.81 -10.96 L 29.81 -10.96 L 19.49 -10.96 L 19.49 -12.76 L 29.81 -12.76 Q 30.93 -12.76 31.71 -11.98 Q 32.5 -11.19 32.5 -10.1 L 32.5 -10.1 L 32.5 0 L 22.15 0 Q 21.05 0 20.27 -0.78 Q 19.49 -1.56 19.49 -2.66 Z M 21.29 -5.48 L 21.29 -2.66 Q 21.29 -2.31 21.55 -2.06 Q 21.81 -1.8 22.15 -1.8 L 22.15 -1.8 L 30.67 -1.8 L 30.67 -5.48 L 21.29 -5.48 Z M 43.5 -5.61 L 34.91 -5.61 L 34.91 -7.41 L 43.5 -7.41 L 43.5 -5.61 Z M 48.04 0 L 46.26 0 L 46.26 -15.84 L 60.7 -15.84 L 60.7 -14.06 L 48.04 -14.06 L 48.04 -8.82 L 58.22 -8.82 L 58.22 -7.01 L 48.04 -7.01 L 48.04 0 Z M 63.82 0 L 62.01 0 L 62.01 -12.76 L 63.82 -12.76 L 63.82 0 Z M 63.82 -15.14 L 62.01 -15.14 L 62.01 -16.94 L 63.82 -16.94 L 63.82 -15.14 Z M 85.91 0 L 72.7 0 L 72.7 -15.84 L 85.91 -15.84 Q 87 -15.84 87.77 -15.07 Q 88.54 -14.3 88.54 -13.2 L 88.54 -13.2 L 88.54 -2.64 Q 88.54 -1.55 87.77 -0.77 Q 87 0 85.91 0 L 85.91 0 Z M 74.49 -13.2 L 74.49 -2.64 Q 74.49 -2.29 74.74 -2.04 Q 74.99 -1.78 75.35 -1.78 L 75.35 -1.78 L 85.91 -1.78 Q 86.26 -1.78 86.51 -2.04 Q 86.75 -2.29 86.75 -2.64 L 86.75 -2.64 L 86.75 -13.2 Q 86.75 -13.56 86.5 -13.81 Q 86.25 -14.06 85.91 -14.06 L 85.91 -14.06 L 75.35 -14.06 Q 74.99 -14.06 74.74 -13.81 Q 74.49 -13.56 74.49 -13.2 L 74.49 -13.2 Z M 92.83 0 L 91.05 0 L 91.05 -13.2 Q 91.05 -14.3 91.82 -15.07 Q 92.6 -15.84 93.69 -15.84 L 93.69 -15.84 L 104.25 -15.84 Q 105.35 -15.84 106.12 -15.07 Q 106.88 -14.3 106.88 -13.2 L 106.88 -13.2 L 106.88 0 L 105.1 0 L 105.1 -5.79 L 92.83 -5.79 L 92.83 0 Z M 92.83 -13.2 L 92.83 -7.57 L 105.1 -7.57 L 105.1 -13.2 Q 105.1 -13.56 104.85 -13.81 Q 104.6 -14.06 104.25 -14.06 L 104.25 -14.06 L 93.69 -14.06 Q 93.34 -14.06 93.09 -13.81 Q 92.83 -13.56 92.83 -13.2 L 92.83 -13.2 Z M 109.36 -2.64 L 109.36 -2.64 L 109.36 -13.2 Q 109.36 -14.3 110.12 -15.07 Q 110.89 -15.84 111.99 -15.84 L 111.99 -15.84 L 122.55 -15.84 Q 123.64 -15.84 124.42 -15.07 Q 125.19 -14.3 125.19 -13.2 L 125.19 -13.2 L 125.19 -2.64 Q 125.19 -1.55 124.42 -0.77 Q 123.65 0 122.55 0 L 122.55 0 L 111.99 0 Q 110.89 0 110.12 -0.77 Q 109.36 -1.54 109.36 -2.64 Z M 111.13 -13.2 L 111.13 -2.64 Q 111.13 -2.29 111.38 -2.04 Q 111.63 -1.78 111.99 -1.78 L 111.99 -1.78 L 122.55 -1.78 Q 122.9 -1.78 123.15 -2.04 Q 123.41 -2.29 123.41 -2.64 L 123.41 -2.64 L 123.41 -13.2 Q 123.41 -13.56 123.15 -13.81 Q 122.9 -14.06 122.55 -14.06 L 122.55 -14.06 L 111.99 -14.06 Q 111.63 -14.06 111.38 -13.81 Q 111.13 -13.56 111.13 -13.2 L 111.13 -13.2 Z" stroke-linecap="round" />
</g>
<g transform="matrix(2.830707575944157 0 0 2.8307075759441576 640 492.8712275525484)" id="shape-0539c200-8ae8-4710-8584-f5525dc55aed-logo"  >
<g style=""  paint-order="stroke"   >
		<g transform="matrix(1 0 0 1 0 0)" id="Layer_1"  >
<linearGradient id="SVGID_26_7_8_8_224160" gradientUnits="userSpaceOnUse" gradientTransform="matrix(1 0 0 1 0 0)"  x1="0" y1="0" x2="0" y2="200">
<stop offset="0%" style="stop-color:rgb(66,230,149);stop-opacity: 1"/>
<stop offset="100%" style="stop-color:rgb(59,178,184);stop-opacity: 1"/>
</linearGradient>
<path style="stroke: none; stroke-width: 1; stroke-dasharray: none; stroke-linecap: butt; stroke-dashoffset: 0; stroke-linejoin: miter; stroke-miterlimit: 4; fill: url(#SVGID_26_7_8_8_224160); fill-rule: nonzero; opacity: 1;"  paint-order="stroke"  transform=" translate(-100, -100)" d="M 100 0 C 44.8 0 0 44.8 0 100 C 0 155.2 44.8 200 100 200 C 155.2 200 200 155.2 200 100 C 200 44.80000000000001 155.2 0 100 0 z M 100 190 C 50.4 190 10 149.6 10 100 C 10 50.400000000000006 50.4 10 100 10 C 149.6 10 190 50.4 190 100 C 190 149.6 149.6 190 100 190 z" stroke-linecap="round" />
</g>
</g>
</g>
<g transform="matrix(2.8334559281965714 0 0 2.833455928196571 640 492.59639232730706)" id="shape-6592bf45-9fea-4b96-a44a-630397c5cd1e-logo"  >
<g style=""  paint-order="stroke"   >
		<g transform="matrix(1 0 0 1 0 0)" id="Layer_1"  >
<linearGradient id="SVGID_224161" gradientUnits="userSpaceOnUse" gradientTransform="matrix(1 0 0 1 0 0)"  x1="0" y1="0" x2="0" y2="200">
<stop offset="0%" style="stop-color:rgb(66,230,149);stop-opacity: 1"/>
<stop offset="100%" style="stop-color:rgb(59,178,184);stop-opacity: 1"/>
</linearGradient>
<path style="stroke: none; stroke-width: 1; stroke-dasharray: none; stroke-linecap: butt; stroke-dashoffset: 0; stroke-linejoin: miter; stroke-miterlimit: 4; fill: url(#SVGID_224161); fill-rule: nonzero; opacity: 1;"  paint-order="stroke"  transform=" translate(-100, -100)" d="M 100 0 C 44.8 0 0 44.8 0 100 C 0 155.2 44.8 200 100 200 C 155.2 200 200 155.2 200 100 C 200 44.80000000000001 155.2 0 100 0 z M 100 190 C 50.4 190 10 149.6 10 100 C 10 50.400000000000006 50.4 10 100 10 C 149.6 10 190 50.4 190 100 C 190 149.6 149.6 190 100 190 z" stroke-linecap="round" />
</g>
</g>
</g>
</svg>